<?xml version="1.0" encoding="UTF-8" standalone="no"?>
<svg width="116px" height="123px" viewBox="0 0 116 123" version="1.1" xmlns="http://www.w3.org/2000/svg" xmlns:xlink="http://www.w3.org/1999/xlink" xmlns:sketch="http://www.bohemiancoding.com/sketch/ns">
    <!-- Generator: Sketch 3.1.1 (8761) - http://www.bohemiancoding.com/sketch -->
    <title>Imported Layers</title>
    <desc>Created with Sketch.</desc>
    <defs></defs>
    <g id="Contact" stroke="none" stroke-width="1" fill="none" fill-rule="evenodd" sketch:type="MSPage">
        <g id="Desktop" sketch:type="MSArtboardGroup" transform="translate(-453.000000, -10.000000)">
            <g id="Header-2" sketch:type="MSLayerGroup" transform="translate(-16.000000, -187.000000)">
                <g id="Imported-Layers" transform="translate(470.000000, 197.000000)" sketch:type="MSShapeGroup">
                    <path d="M114.932971,57.8689375 C114.932971,89.7396042 89.1332059,115.576438 57.3082647,115.576438 C25.4824706,115.576438 -0.316441176,89.7396042 -0.316441176,57.8689375 C-0.316441176,25.9974167 25.4824706,0.1614375 57.3082647,0.1614375 C89.1332059,0.1614375 114.932971,25.9974167 114.932971,57.8689375" id="Fill-1" fill="#493E09"></path>
                    <path d="M111.945971,57.8689375 C111.945971,88.0876458 87.4836176,112.585146 57.3082647,112.585146 C27.1329118,112.585146 2.67055882,88.0876458 2.67055882,57.8689375 C2.67055882,27.6502292 27.1329118,3.15272917 57.3082647,3.15272917 C87.4836176,3.15272917 111.945971,27.6502292 111.945971,57.8689375 L111.945971,57.8689375 Z" id="Fill-2" fill="#655B51"></path>
                    <path d="M111.945971,57.8689375 C111.945971,88.0876458 87.4836176,112.585146 57.3082647,112.585146 C27.1329118,112.585146 2.67055882,88.0876458 2.67055882,57.8689375 C2.67055882,27.6502292 27.1329118,3.15272917 57.3082647,3.15272917 C87.4836176,3.15272917 111.945971,27.6502292 111.945971,57.8689375 L111.945971,57.8689375 Z" id="Stroke-3" stroke="#E5C985" stroke-width="1.5"></path>
                    <path d="M24.8095,79.4588542 C24.3762059,79.873125 23.8866176,80.3429167 23.3415882,80.867375 C22.7965588,81.3918333 22.2250882,81.9419167 21.6271765,82.5159167 C21.0301176,83.0907708 20.4612059,83.6391458 19.9212941,84.1601875 C19.3805294,84.6829375 18.8960588,85.1561458 18.4670294,85.5798125 C18.038,86.0043333 17.7241176,86.3263542 17.5245294,86.5450208 C17.4818824,86.412625 17.4392353,86.2853542 17.3957353,86.1640625 C17.3530882,86.043625 17.3002059,85.920625 17.2379412,85.7967708 C17.1765294,85.6729167 17.11,85.5576042 17.0383529,85.4508333 C16.9667059,85.3449167 16.8907941,85.233875 16.8089118,85.1194167 C17.4400882,84.5770208 18.0277647,84.06025 18.5736471,83.5716667 C19.1186765,83.0822292 19.6671176,82.5774167 20.2198235,82.0555208 C20.7716765,81.5327708 21.3499706,80.980125 21.9547059,80.395875 C22.5585882,79.8124792 23.2400882,79.1505 23.9983529,78.4116458 L23.9838529,78.3834583 C23.6853235,78.4270208 23.2725,78.4859583 22.7453824,78.561125 C22.2182647,78.6354375 21.6365588,78.72 21.0002647,78.8139583 C20.3639706,78.9079167 19.7012353,79.0035833 19.0120588,79.1001042 C18.3237353,79.196625 17.6686765,79.2948542 17.0468824,79.3930833 C16.4250882,79.4921667 15.8595882,79.586125 15.3520882,79.6749583 C14.8437353,79.7646458 14.4573529,79.8398125 14.1912353,79.9021667 C14.1426176,79.688625 14.0880294,79.5203542 14.0257647,79.3965 C13.9635,79.2726458 13.8611471,79.1274375 13.7187059,78.9617292 C13.9413235,78.766125 14.2415588,78.4868125 14.6185588,78.1246458 C14.9947059,77.7624792 15.4135,77.3584583 15.8732353,76.9125833 C16.3329706,76.4667083 16.8080588,75.998625 17.2985,75.5074792 C17.7897941,75.0171875 18.2597647,74.5448333 18.7101176,74.092125 C19.1604706,73.6385625 19.5664706,73.2294167 19.9298235,72.8612708 C20.2923235,72.4956875 20.5746471,72.206125 20.7785,71.9968542 L20.7648529,71.9686667 C20.5226176,72.0071042 20.1464706,72.0686042 19.6355588,72.1531667 C19.1255,72.236875 18.5480588,72.3308333 17.9049412,72.4341875 C17.2618235,72.5383958 16.5871471,72.6511458 15.8817647,72.7741458 C15.1772353,72.8971458 14.5051176,73.0150208 13.8662647,73.128625 C13.2282647,73.2422292 12.6585,73.343875 12.1569706,73.4344167 C11.6562941,73.5258125 11.2895294,73.6009792 11.0566765,73.6582083 C11.0327941,73.5633958 11.0080588,73.472 10.9816176,73.3840208 C10.9551765,73.2960417 10.9202059,73.2097708 10.8775588,73.1235 C10.8349118,73.0380833 10.7862941,72.9586458 10.7308529,72.8843333 C10.6762647,72.8117292 10.6174118,72.7365625 10.556,72.6605417 C10.8221176,72.6460208 11.252,72.6024583 11.8456471,72.529 C12.4392941,72.4563958 13.1148235,72.370125 13.8713824,72.2684792 C14.6287941,72.1668333 15.4297059,72.0557917 16.2724118,71.9353542 C17.1151176,71.8140625 17.9177353,71.7021667 18.6794118,71.5979583 C19.4419412,71.4946042 20.126,71.3997917 20.7315882,71.3160833 C21.3371765,71.2306667 21.7747353,71.1742917 22.0451176,71.14525 C22.1022647,71.3066875 22.1739118,71.4723958 22.2600588,71.6440833 C22.3462059,71.8149167 22.4366176,71.9720833 22.5312941,72.113875 C21.4275882,73.2063542 20.3136471,74.297125 19.1894706,75.3861875 C18.067,76.47525 16.9146765,77.6206875 15.7350588,78.8225 L15.7487059,78.8498333 C16.0054412,78.8165208 16.3483235,78.77125 16.7782059,78.7157292 C17.2080882,78.6602083 17.69,78.5961458 18.2239412,78.5243958 C18.7587353,78.4509375 19.3319118,78.3740625 19.9443235,78.2920625 C20.5567353,78.2100625 21.1742647,78.1255 21.7960588,78.038375 C22.4187059,77.9521042 23.0285588,77.864125 23.6273235,77.777 C24.2252353,77.6907292 24.7685588,77.613 25.2581471,77.5455208 C25.3152941,77.7069583 25.3895,77.8786458 25.4799118,78.058875 C25.5703235,78.2399583 25.6632941,78.4013958 25.7588235,78.5431875 C25.5600882,78.7387917 25.2427941,79.0445833 24.8095,79.4588542" id="Fill-4" fill="#F4F3ED"></path>
                    <path d="M12.9834706,68.84925 C12.2473824,68.6433958 11.6051176,68.3085625 11.0566765,67.84475 C10.5099412,67.3800833 10.0647059,66.7983958 9.72438235,66.1013958 C9.38405882,65.4035417 9.16144118,64.6202708 9.05738235,63.755 C8.95161765,62.8777708 8.98232353,62.0603333 9.14694118,61.3018333 C9.31326471,60.5424792 9.60752941,59.8719583 10.0297353,59.2902708 C10.4510882,58.7102917 10.9961176,58.2319583 11.6622647,57.856125 C12.3284118,57.482 13.1097059,57.241125 14.0061471,57.1326458 C14.9025882,57.0250208 15.7188529,57.0737083 16.4549412,57.2795625 C17.1910294,57.4854167 17.8332941,57.82025 18.3808824,58.2849167 C18.9293235,58.7487292 19.3651765,59.3312708 19.6901471,60.0308333 C20.0151176,60.73125 20.2300588,61.5196458 20.3358235,62.3960208 C20.4390294,63.2621458 20.4168529,64.0736042 20.2667353,64.83125 C20.1166176,65.5880417 19.8317353,66.2568542 19.4086765,66.8385417 C18.9864706,67.4202292 18.4422941,67.8977083 17.7761471,68.2726875 C17.11,68.6476667 16.3287059,68.8893958 15.4322647,68.9970208 C14.5358235,69.1055 13.7195588,69.0559583 12.9834706,68.84925 L12.9834706,68.84925 Z M11.9633529,59.2902708 C11.3517941,59.5892292 10.8613529,59.9616458 10.4928824,60.408375 C10.1235588,60.85425 9.87108824,61.3565 9.73461765,61.9134167 C9.59814706,62.4711875 9.56744118,63.0614167 9.6425,63.6849583 C9.71585294,64.2965417 9.88473529,64.8577292 10.15,65.3676667 C10.4144118,65.8758958 10.7777647,66.3029792 11.2426176,66.6489167 C11.7066176,66.9957083 12.2704118,67.2408542 12.9357059,67.3860625 C13.6001471,67.5295625 14.3703529,67.5500625 15.2454706,67.445 C16.1205882,67.3390833 16.8643529,67.1366458 17.4750588,66.8385417 C18.0866176,66.5395833 18.5762059,66.1671667 18.9455294,65.7204375 C19.3148529,65.2754167 19.5673235,64.7731667 19.7037941,64.2153958 C19.8402647,63.657625 19.8709706,63.0725208 19.7976176,62.4609375 C19.7225588,61.83825 19.5528235,61.2710833 19.2884118,60.7628542 C19.0248529,60.2529167 18.6597941,59.8258333 18.1957941,59.4798958 C17.7317941,59.1339583 17.1671471,58.8888125 16.5027059,58.7444583 C15.8382647,58.59925 15.0680588,58.57875 14.1929412,58.6855208 C13.3178235,58.7905833 12.5749118,58.9921667 11.9633529,59.2902708 L11.9633529,59.2902708 Z" id="Fill-5" fill="#F4F3ED"></path>
                    <path d="M13.5762647,50.9715417 C15.1226471,50.5299375 16.7125294,50.0618542 18.3459118,49.5672917 C18.1702059,49.4220833 17.9185882,49.2119583 17.5910588,48.9369167 C17.2635294,48.661875 16.8882353,48.3432708 16.4643235,47.9828125 C16.0404118,47.6223542 15.5815294,47.2354167 15.0868235,46.8211458 C14.5929706,46.4077292 14.0922941,45.9883333 13.5847941,45.5603958 C13.0772941,45.1341667 12.5800294,44.7113542 12.0921471,44.2945208 C11.6042647,43.8768333 11.1487941,43.4881875 10.7248824,43.126875 L10.7675294,42.9235833 C11.7893529,43.01925 12.7762059,43.1149167 13.7272353,43.2114375 C14.6782647,43.3071042 15.6139412,43.3976458 16.5351176,43.4822083 C17.4554412,43.567625 18.3663824,43.649625 19.2670882,43.7299167 C20.1669412,43.8102083 21.0616765,43.8776875 21.9504412,43.9332083 C21.9035294,44.0545 21.8677059,44.1749375 21.8421176,44.2945208 C21.8173824,44.4141042 21.7917941,44.53625 21.7662059,44.6609583 C21.7397647,44.7865208 21.7133235,44.9086667 21.6885882,45.02825 C21.6638529,45.1478333 21.6485,45.2725417 21.6433824,45.402375 C20.2368824,45.2264167 18.8721765,45.0598542 17.5484118,44.9009792 C16.2246471,44.7429583 14.8701765,44.6054375 13.4841471,44.4884167 L13.4773235,44.5200208 C14.6373235,45.5125625 15.7913529,46.4914375 16.9402647,47.4557917 C18.0900294,48.4192917 19.3063235,49.3614375 20.5891471,50.2830833 L20.5601471,50.4240208 C19.1195294,50.773375 17.6703824,51.1509167 16.2127059,51.5575 C14.7550294,51.9632292 13.2683529,52.3655417 11.7526765,52.7644375 L11.7458529,52.7960417 C12.3744706,53.0044583 13.0576765,53.2316667 13.7920588,53.4776667 C14.5281471,53.725375 15.254,53.961125 15.9713235,54.1874792 C16.6886471,54.4146875 17.3675882,54.62225 18.0064412,54.8110208 C18.6452941,54.9989375 19.1724118,55.1364583 19.5877941,55.2244375 C19.5323529,55.3867292 19.4837353,55.5661042 19.4427941,55.7642708 C19.401,55.9615833 19.3737059,56.1460833 19.3592059,56.3169167 C18.5455,56.0051458 17.6865882,55.678 16.7816176,55.3354792 C15.8766471,54.9946667 14.9648529,54.6555625 14.0470882,54.3224375 C13.1301765,53.9884583 12.2226471,53.6681458 11.3262059,53.3597917 C10.4306176,53.0522917 9.57511765,52.7695625 8.76141176,52.5116042 L8.81685294,52.2468125 C10.4434118,51.8376667 12.0298824,51.4131458 13.5762647,50.9715417" id="Fill-6" fill="#F4F3ED"></path>
                    <path d="M14.9128235,38.8996042 C14.2961471,38.6126042 13.6777647,38.3281667 13.0585294,38.0462917 C13.2965,37.6294583 13.5293529,37.2143333 13.7596471,36.8009167 C13.9899412,36.3875 14.2134118,35.96725 14.4317647,35.5410208 C14.6501176,35.1156458 14.8590882,34.691125 15.0578235,34.2674583 C15.2565588,33.8437917 15.4561471,33.4141458 15.6557353,32.9785208 C15.7828235,33.0793125 15.9175882,33.1664375 16.0591765,33.2390417 C16.2007647,33.3125 16.3500294,33.3714375 16.5061176,33.4158542 C16.3321176,33.7088333 16.1717647,33.9761875 16.0242059,34.2170625 C15.8766471,34.4579375 15.7222647,34.7133333 15.5602059,34.98325 C15.3981471,35.2523125 15.225,35.5487083 15.0407647,35.8724375 C14.8573824,36.1970208 14.6458529,36.5907917 14.4087353,37.05375 C14.7064118,37.2194583 14.9887353,37.3791875 15.2557059,37.5337917 C15.5226765,37.68925 15.8305882,37.8558125 16.1794412,38.0360417 C16.5487647,38.2248125 16.9087059,38.4076042 17.2609706,38.5827083 C17.6132353,38.7578125 17.8793529,38.8910625 18.0584706,38.9833125 C18.2717059,38.5664792 18.4585,38.1915 18.6188529,37.8541042 C18.7792059,37.5184167 18.9225,37.2100625 19.0487353,36.9273333 C19.1749706,36.6463125 19.2909706,36.3857917 19.3958824,36.146625 C19.4999412,35.9074583 19.5963235,35.6785417 19.6841765,35.4607292 C19.8112647,35.562375 19.9502941,35.6520625 20.1012647,35.7297917 C20.2437059,35.8023958 20.3921176,35.8604792 20.5490588,35.90575 C20.3938235,36.136375 20.2240882,36.4105625 20.0381471,36.7283125 C19.8513529,37.0443542 19.6722353,37.3646667 19.5007941,37.68925 C19.3285,38.0129792 19.1655882,38.3187708 19.0137647,38.6049167 C18.8610882,38.8910625 18.7408235,39.1182708 18.6538235,39.2891042 C18.7391176,39.3326667 18.8295294,39.3822083 18.9259118,39.4377292 C19.0231471,39.4941042 19.1468235,39.5607292 19.2977941,39.6384583 L19.8513529,39.9228958 L20.7017353,40.3602292 C21.2399412,40.636125 21.6860294,40.861625 22.0374412,41.0375833 C22.3897059,41.2118333 22.6583824,41.3408125 22.8426176,41.4245208 C23.0021176,41.1110417 23.1718529,40.7804792 23.3518235,40.4302708 C23.5360588,40.0706667 23.7092059,39.7144792 23.8721176,39.3617083 C24.0350294,39.0089375 24.1834412,38.6723958 24.3173529,38.3537917 C24.4512647,38.0334792 24.5527647,37.7481875 24.6218529,37.4962083 C24.6781471,37.5491667 24.7455294,37.5995625 24.8231471,37.6448333 C24.9016176,37.6909583 24.9732647,37.7311042 25.0397941,37.7644167 C25.1907647,37.843 25.3212647,37.8916875 25.4295882,37.9113333 C25.1924706,38.3273125 24.9664412,38.7467083 24.7506471,39.1678125 C24.5348529,39.5880625 24.3147941,40.0168542 24.0921765,40.4524792 C23.8687059,40.8881042 23.6486471,41.31775 23.4302941,41.7439792 C23.2119412,42.1702083 23.0004118,42.6058333 22.7965588,43.05 C22.2071765,42.7108958 21.6177941,42.3760625 21.0292647,42.0437917 C20.4415882,41.7115208 19.836,41.3852292 19.2116471,41.0640625 L16.7739412,39.8118542 C16.1504412,39.4915417 15.5303529,39.1874583 14.9128235,38.8996042" id="Fill-7" fill="#F4F3ED"></path>
                    <path d="M26.2569412,30.1648958 C24.2329118,30.2306667 22.214,30.3015625 20.2019118,30.3775833 C20.4194118,30.580875 20.7119706,30.8516458 21.0812941,31.1881875 C21.4497647,31.5255833 21.9589706,31.9765833 22.6072059,32.54375 C22.7743824,32.6915208 22.9842059,32.8708958 23.2358235,33.0835833 C23.4874412,33.2962708 23.751,33.5200625 24.0265,33.75325 C24.302,33.9881458 24.5834706,34.2230417 24.8700588,34.4596458 C25.1566471,34.6971042 25.4236176,34.916625 25.6709706,35.1182083 C25.9174706,35.3197917 26.1349706,35.49575 26.3217647,35.6452292 C26.5085588,35.7947083 26.6382059,35.8929375 26.709,35.9407708 C26.5810588,36.0552292 26.4505588,36.1884792 26.3175,36.3405208 C26.1784706,36.5011042 26.0565,36.6565625 25.9541471,36.8068958 C25.8884706,36.720625 25.7562647,36.5728542 25.5575294,36.3635833 C25.3587941,36.1551667 25.1165588,35.9117292 24.8308235,35.6324167 C24.5442353,35.3548125 24.2346176,35.0507292 23.8994118,34.7235833 C23.5650588,34.3955833 23.2272941,34.0718542 22.8852647,33.7515417 C22.5440882,33.4320833 22.2088824,33.1211667 21.8805,32.8196458 C21.5512647,32.518125 21.2544412,32.2507708 20.9908824,32.0201458 C20.2223824,31.3487708 19.5605,30.7730625 19.0052353,30.293875 C18.4499706,29.8155417 18.0294706,29.4653333 17.7437353,29.24325 L17.9109118,29.0510625 C18.8653529,29.0245833 19.8871765,28.9963958 20.9763824,28.9682083 C22.0664412,28.9391667 23.1437059,28.9084167 24.2107353,28.87425 C25.2769118,28.838375 26.2876471,28.8050625 27.2412353,28.7708958 C28.1948235,28.7350208 29.0162059,28.6957292 29.7053824,28.64875 L28.0737059,27.2205833 C27.2335588,26.486 26.4104706,25.7770417 25.6044412,25.0928542 C24.7984118,24.4086667 24.0256471,23.7791458 23.287,23.2034375 C23.4661176,23.077875 23.6051471,22.9591458 23.7023824,22.84725 C23.7868235,22.7507292 23.8780882,22.6055208 23.9778824,22.4107708 C24.1399412,22.58075 24.3881471,22.8293125 24.7225,23.1573125 C25.0577059,23.4844583 25.4159412,23.8338125 25.7980588,24.2036667 C26.1810294,24.5735208 26.5571765,24.9348333 26.9265,25.28675 C27.2966765,25.6378125 27.5986176,25.9154167 27.8306176,26.1178542 C28.0302059,26.2929583 28.2698824,26.5030833 28.5496471,26.7482292 C28.8225882,26.9865417 29.1083235,27.2325417 29.4068529,27.4879375 C29.7062353,27.7424792 30.0081765,27.9987292 30.3118235,28.2575417 C30.6154706,28.5155 30.8986471,28.756375 31.1622059,28.9801667 C31.4257647,29.2031042 31.6535,29.3987083 31.8454118,29.5669792 C32.0211176,29.7215833 32.1533235,29.8368958 32.2411765,29.9129167 L32.0944706,30.0811875 C30.2273824,30.0717917 28.2809706,30.1008333 26.2569412,30.1648958" id="Fill-8" fill="#F4F3ED"></path>
                    <path d="M27.9679412,19.3127083 C27.9722059,19.1435833 28.0583529,18.99325 28.2272353,18.8642708 C28.3278824,18.7865417 28.4575294,18.7412708 28.6144706,18.7276042 C28.7714118,18.7147917 28.9087353,18.7839792 29.0247353,18.936875 C29.1023529,19.0376667 29.1518235,19.1478542 29.174,19.2640208 C29.1961765,19.3810417 29.2183529,19.4972083 29.2405294,19.6150833 L29.7096471,23.5126458 L29.4136765,23.5980625 L28.0378824,19.7713958 C27.9875588,19.6372917 27.9645294,19.4835417 27.9679412,19.3127083" id="Fill-9" fill="#F4F3ED"></path>
                    <path d="M36.4214412,24.8596667 C36.6415,24.9630208 36.8811765,25.0347708 37.1396176,25.0740625 C37.3972059,25.1133542 37.6718529,25.1107917 37.9627059,25.066375 C38.2535588,25.0211042 38.5469706,24.9168958 38.8446471,24.7520417 C39.1517059,24.5829167 39.3990588,24.3762083 39.5867059,24.133625 C39.7743529,23.8910417 39.904,23.6305208 39.9765,23.3537708 C40.0481471,23.0770208 40.0626471,22.7900208 40.02,22.4919167 C39.9773529,22.1938125 39.8792647,21.9051042 39.7248824,21.6249375 C39.4894706,21.197 39.1926471,20.9168333 38.8361176,20.7861458 C38.4787353,20.6554583 38.0915,20.5956667 37.6735588,20.607625 C37.2556176,20.6195833 36.8197647,20.6597292 36.366,20.7280625 C35.9130882,20.7963958 35.4652941,20.8151875 35.0243235,20.7852917 C34.5833529,20.7553958 34.1637059,20.638375 33.7662353,20.4325208 C33.3679118,20.2266667 33.0182059,19.849125 32.7154118,19.2998958 C32.5004706,18.9086875 32.3733824,18.5140625 32.3367059,18.1151667 C32.2991765,17.717125 32.3486471,17.3284792 32.4859706,16.9492292 C32.6232941,16.5699792 32.8416471,16.2129375 33.1418824,15.87725 C33.4421176,15.5407083 33.8242353,15.2443125 34.2899412,14.9880625 C34.7360294,14.7412083 35.1522647,14.5823333 35.5360882,14.508875 C35.9207647,14.437125 36.3139706,14.4354167 36.7165588,14.5054583 C36.7199706,14.7096042 36.7421471,14.9163125 36.7839412,15.123875 C36.8257353,15.3314375 36.8931176,15.5859792 36.9852353,15.8875 L36.8180588,15.9788958 C36.6995,15.8738333 36.5587647,15.7670625 36.395,15.656875 C36.2320882,15.5466875 36.0461471,15.4646875 35.8397353,15.4083125 C35.6333235,15.3519375 35.4124118,15.3314375 35.1778529,15.3451042 C34.9424412,15.3587708 34.6950882,15.4382083 34.4349412,15.5817083 C34.1739412,15.7252083 33.9572941,15.9003125 33.7858529,16.1036042 C33.6127059,16.3086042 33.4873235,16.53325 33.4097059,16.7766875 C33.3312353,17.0192708 33.3065,17.2729583 33.3363529,17.5360417 C33.3662059,17.799125 33.4497941,18.0570833 33.5888235,18.3082083 C33.8293529,18.7463958 34.1278824,19.0308333 34.4852647,19.1606667 C34.8426471,19.2913542 35.2307353,19.3537083 35.6512353,19.3460208 C36.0717353,19.3391875 36.5075882,19.2990417 36.9587941,19.2264375 C37.41,19.1538333 37.8518235,19.1247917 38.2851176,19.1401667 C38.7184118,19.15725 39.1286765,19.2580417 39.5167647,19.4451042 C39.9048529,19.6313125 40.2392059,19.9815208 40.5215294,20.4931667 C40.7577941,20.9219583 40.9036471,21.3695417 40.9599412,21.8359167 C41.0170882,22.3031458 40.977,22.7592708 40.8405294,23.2051458 C40.7032059,23.6510208 40.4652353,24.067 40.1274706,24.4547917 C39.788,24.8417292 39.3487353,25.1851042 38.8096765,25.4823542 C38.2330882,25.8001042 37.7230294,25.9811875 37.2812059,26.0256042 C36.8376765,26.0700208 36.4419118,26.060625 36.0922059,25.9982708 C36.0580882,25.73775 36.0103235,25.51225 35.9480588,25.322625 C35.8849412,25.1321458 35.7936765,24.8938333 35.6734118,24.6076875 L35.8405882,24.5154375 C36.0069118,24.6418542 36.2005294,24.7571667 36.4214412,24.8596667" id="Fill-10" fill="#F4F3ED"></path>
                    <path d="M62.8071765,20.172 C62.5956471,20.2651042 62.3431765,20.34625 62.0480588,20.4137292 C61.7529412,20.4829167 61.4237059,20.5427083 61.0612059,20.59225 C60.6978529,20.6417917 60.3191471,20.6597292 59.9267941,20.6452083 C59.0883529,20.6136042 58.3181471,20.464125 57.6161765,20.1984792 C56.9142059,19.931125 56.3145882,19.5450417 55.8190294,19.0351042 C55.3226176,18.5277292 54.9422059,17.9135833 54.6769412,17.1960833 C54.4116765,16.4777292 54.2965294,15.667125 54.3306471,14.7642708 C54.3656176,13.8605625 54.5413235,13.0610625 54.8603235,12.3649167 C55.1793235,11.6687708 55.6100588,11.0870833 56.1542353,10.6181458 C56.6984118,10.1492083 57.3415294,9.8015625 58.0835882,9.5735 C58.8256471,9.34629167 59.6367941,9.24977083 60.5170294,9.28308333 C61.2181471,9.31041667 61.8544412,9.40608333 62.4276176,9.57179167 C63.0007941,9.73664583 63.5065882,9.9296875 63.9441471,10.1483542 C63.8537353,10.2935625 63.7769706,10.4934375 63.7147059,10.7462708 C63.6515882,10.9991042 63.6012647,11.2100833 63.5628824,11.3792083 L63.4665,11.4073958 C63.365,11.2758542 63.2217059,11.126375 63.0366176,10.9598125 C62.8523824,10.79325 62.6348824,10.6309583 62.3858235,10.4720833 C62.1367647,10.3140625 61.8544412,10.17825 61.5405588,10.0646458 C61.2258235,9.95189583 60.8769706,9.88783333 60.4957059,9.8733125 C59.8687941,9.84939583 59.2836765,9.92883333 58.7403529,10.1099167 C58.1970294,10.291 57.7176765,10.5848333 57.304,10.9888542 C56.8903235,11.3937292 56.5593824,11.9130625 56.3120294,12.5477083 C56.0646765,13.1832083 55.9247941,13.9408542 55.8906765,14.8232083 C55.8574118,15.7055625 55.9401471,16.4726042 56.1380294,17.1234792 C56.3367647,17.7752083 56.6276176,18.3193125 57.0097353,18.7540833 C57.391,19.1888542 57.8464706,19.5177083 58.3752941,19.7397917 C58.9032647,19.961875 59.4798529,20.0857292 60.1067647,20.1087917 C60.4888824,20.1233125 60.8437059,20.0891458 61.1712353,20.0062917 C61.4979118,19.9225833 61.7998529,19.8200833 62.0753529,19.6970833 C62.3508529,19.5740833 62.6007647,19.4399792 62.8242353,19.2947708 C63.0477059,19.1487083 63.2362059,19.0205833 63.3888824,18.9086875 L63.4502941,18.9753125 L63.2711765,19.9097708 C63.1722353,19.9917708 63.017,20.0788958 62.8071765,20.172" id="Fill-11" fill="#F4F3ED"></path>
                    <path d="M66.5703529,13.0926667 C67.0727353,12.5161042 67.6510294,12.0804792 68.3060882,11.7849375 C68.9602941,11.49025 69.6750588,11.3390625 70.4512353,11.331375 C71.2274118,11.3245417 72.0274706,11.4603542 72.8531176,11.7396667 C73.6881471,12.0215417 74.4122941,12.4007917 75.0255588,12.8774167 C75.6379706,13.3540417 76.1147647,13.9083958 76.4567941,14.5404792 C76.7988235,15.1725625 76.995,15.8704167 77.0461765,16.6340417 C77.0973529,17.3976667 76.9779412,18.2082708 76.6896471,19.065 C76.4005,19.920875 76.0047353,20.638375 75.5023529,21.2140833 C74.9991176,21.7915 74.4208235,22.2279792 73.7666176,22.5218125 C73.1124118,22.8173542 72.4002059,22.9617083 71.6291471,22.9531667 C70.8589412,22.944625 70.0554706,22.8002708 69.2195882,22.5175417 C68.3947941,22.2390833 67.6732059,21.868375 67.0556765,21.407125 C66.4372941,20.945875 65.9570882,20.3992083 65.6150588,19.767125 C65.2738824,19.1350417 65.0768529,18.4371875 65.0265294,17.6735625 C64.9753529,16.9099375 65.0947647,16.0993333 65.3830588,15.2426042 C65.6722059,14.385875 66.0671176,13.6692292 66.5703529,13.0926667 L66.5703529,13.0926667 Z M75.6243235,16.2881042 C75.6183529,15.6073333 75.4938235,15.0034375 75.2507353,14.4772708 C75.0076471,13.9519583 74.6639118,13.5077917 74.2203824,13.1447708 C73.7768529,12.78175 73.2582647,12.4990208 72.6646176,12.2982917 C72.0803529,12.1009792 71.5020588,12.0121458 70.9297353,12.0326458 C70.3565588,12.0514375 69.8149412,12.1975 69.3031765,12.4674167 C68.7914118,12.7381875 68.3274118,13.1422083 67.9111765,13.6803333 C67.4940882,14.2193125 67.1443824,14.9069167 66.8620588,15.7431458 C66.5805882,16.579375 66.4424118,17.337875 66.4483824,18.0186458 C66.4543529,18.701125 66.5788824,19.3041667 66.8219706,19.8294792 C67.0650588,20.3547917 67.4087941,20.7998125 67.8523235,21.1628333 C68.2958529,21.5258542 68.8093235,21.806875 69.3935882,22.0033333 C69.9872353,22.2049167 70.5697941,22.2954583 71.1429706,22.2758125 C71.7161471,22.2553125 72.2577647,22.1101042 72.7695294,21.8401875 C73.2812941,21.5694167 73.7452941,21.1653958 74.1623824,20.6264167 C74.5786176,20.0882917 74.9283235,19.4015417 75.2097941,18.5644583 C75.4921176,17.7282292 75.6302941,16.9697292 75.6243235,16.2881042 L75.6243235,16.2881042 Z" id="Fill-12" fill="#F4F3ED"></path>
                    <path d="M82.2772647,24.5624167 C82.0435588,22.5482917 81.8055882,20.5392917 81.5625,18.5379792 C81.3774118,18.7711667 81.1326176,19.0863542 80.8289706,19.4826875 C80.5244706,19.8790208 80.1167647,20.4239792 79.6067059,21.1175625 C79.4745,21.2977917 79.3124412,21.5215833 79.1222353,21.7897917 C78.9311765,22.0588542 78.7298824,22.339875 78.5209118,22.6345625 C78.3110882,22.92925 78.0995588,23.2299167 77.8880294,23.5357083 C77.6765,23.8415 77.4803235,24.1259375 77.2995,24.389875 C77.1195294,24.6529583 76.9625882,24.8835833 76.8295294,25.0834583 C76.6964706,25.281625 76.6094706,25.4191458 76.5668235,25.4943125 C76.4431471,25.3755833 76.299,25.2568542 76.1369412,25.1364167 C75.9655,25.0117083 75.8017353,24.902375 75.6439412,24.8126875 C75.7232647,24.7400833 75.8597353,24.5957292 76.0507941,24.3804792 C76.2418529,24.164375 76.4644706,23.903 76.7177941,23.5937917 C76.9711176,23.2854375 77.2466176,22.9506042 77.5451471,22.5892917 C77.8436765,22.2288333 78.1379412,21.8641042 78.4279412,21.4968125 C78.7179412,21.1295208 78.9994118,20.7682083 79.2723529,20.4145833 C79.5452941,20.0618125 79.7858235,19.7440625 79.9939412,19.4613333 C80.5986765,18.639625 81.1155588,17.9306667 81.5454412,17.3370208 C81.9753235,16.7425208 82.2892059,16.2932292 82.4870882,15.9891458 L82.6917941,16.1411875 C82.7975588,17.0901667 82.9101471,18.1083333 83.0295588,19.193125 C83.1481176,20.2787708 83.2692353,21.3516042 83.3929118,22.4133333 C83.5157353,23.4742083 83.6334412,24.4795625 83.7477353,25.4285417 C83.8611765,26.3775208 83.9695,27.1941042 84.0735588,27.8782917 L85.3580882,26.1306667 C86.0191176,25.2320833 86.6571176,24.3514375 87.2703824,23.4895833 C87.8845,22.6277292 88.4465882,21.8043125 88.9583529,21.0184792 C89.0973824,21.1876042 89.2278824,21.3157292 89.3472941,21.4045625 C89.4496471,21.4797292 89.6023235,21.5591667 89.8044706,21.6437292 C89.6492353,21.8188333 89.4223529,22.0870417 89.1238235,22.4483542 C88.8252941,22.8096667 88.508,23.1966042 88.1719412,23.6091667 C87.8358824,24.0217292 87.5075,24.4274583 87.1885,24.8255 C86.8686471,25.2235417 86.6178824,25.5472708 86.4353529,25.7958333 C86.2775588,26.0102292 86.0890588,26.2673333 85.869,26.5662917 C85.6540588,26.8584167 85.4331471,27.1633542 85.2045588,27.4836667 C84.9759706,27.8039792 84.7456765,28.126 84.5136765,28.4505833 C84.2816765,28.7743125 84.0650294,29.0775417 83.8645882,29.3594167 C83.6641471,29.6404375 83.4892941,29.8847292 83.3374706,30.0897292 C83.1992941,30.2785 83.0952353,30.4202917 83.0261471,30.51425 L82.8470294,30.381 C82.7003235,28.5163542 82.5109706,26.5773958 82.2772647,24.5624167" id="Fill-13" fill="#F4F3ED"></path>
                    <path d="M85.7120588,31.0865417 C85.6523529,31.3222917 85.6284706,31.5708542 85.6387059,31.8330833 C85.6480882,32.0944583 85.7026765,32.3635208 85.8016176,32.6402708 C85.9005588,32.917875 86.0583529,33.1877917 86.2758529,33.4491667 C86.5001765,33.7190833 86.7492353,33.9232292 87.0230294,34.0616042 C87.2968235,34.1999792 87.5757353,34.2785625 87.8614706,34.2973542 C88.1463529,34.3161458 88.4303824,34.276 88.7144118,34.1777708 C88.9992941,34.0795417 89.2637059,33.9275 89.5085,33.7242083 C89.8846471,33.4107292 90.103,33.0665 90.1635588,32.6915208 C90.2241176,32.3156875 90.2096176,31.923625 90.1183529,31.5144792 C90.0279412,31.1053333 89.9068235,30.6850833 89.7541471,30.2520208 C89.6014706,29.8181042 89.4982647,29.3824792 89.4445294,28.9434375 C89.3899412,28.5035417 89.4266176,28.0687708 89.5528529,27.639125 C89.6790882,27.208625 89.9827353,26.7926458 90.4646471,26.3911875 C90.8083824,26.1058958 91.1708824,25.9077292 91.5547059,25.7949792 C91.9385294,25.6830833 92.3291765,25.6591667 92.7266471,25.722375 C93.1249706,25.7847292 93.5164706,25.9325 93.9028529,26.1639792 C94.2883824,26.3954583 94.6508824,26.716625 94.9903529,27.1257708 C95.3170294,27.5178333 95.5515882,27.8962292 95.6948824,28.2609583 C95.8390294,28.6256875 95.9149412,29.012625 95.9226176,29.4200625 C95.7221765,29.4627708 95.5242941,29.5234167 95.3289706,29.6037083 C95.1327941,29.684 94.8956765,29.7976042 94.6184706,29.9462292 L94.4965,29.7984583 C94.5766765,29.6626458 94.6551471,29.504625 94.7327647,29.3226875 C94.8095294,29.14075 94.8555882,28.9434375 94.8717941,28.7290417 C94.8871471,28.5146458 94.8658235,28.2942708 94.8078235,28.0662083 C94.7498235,27.8372917 94.6252941,27.6092292 94.4359412,27.3803125 C94.2457353,27.1513958 94.0342059,26.9711667 93.8005,26.8404792 C93.5676471,26.7097917 93.3245588,26.6286458 93.0703824,26.5978958 C92.8170588,26.5662917 92.5637353,26.5902083 92.3121176,26.6687917 C92.0596471,26.7482292 91.8225294,26.8797708 91.6024706,27.0634167 C91.2186471,27.3820208 90.9960294,27.7305208 90.9354706,28.1063542 C90.8740588,28.4813333 90.8877059,28.8759583 90.9738529,29.2876667 C91.06,29.7002292 91.1819706,30.1204792 91.3389118,30.5509792 C91.495,30.9797708 91.6067353,31.4102708 91.6732647,31.8390625 C91.7389412,32.2678542 91.7176176,32.6906667 91.6075882,33.1075 C91.4975588,33.5234792 91.2177941,33.9198125 90.7691471,34.2930833 C90.393,34.6065625 89.9818824,34.834625 89.5349412,34.978125 C89.088,35.1224792 88.6333824,35.1694583 88.1702353,35.1199167 C87.7070882,35.0686667 87.2541765,34.9132083 86.8097941,34.6543958 C86.3662647,34.393875 85.9474706,34.0265833 85.5534118,33.5525208 C85.1329118,33.046 84.8582647,32.5787708 84.7320294,32.1516875 C84.6049412,31.72375 84.5392647,31.3325417 84.5341471,30.9772083 C84.7832059,30.8952083 84.9947353,30.8046667 85.1704412,30.7081458 C85.3444412,30.6099167 85.5610882,30.4749583 85.8178235,30.3024167 L85.9406471,30.4501875 C85.8476765,30.63725 85.7717647,30.8499375 85.7120588,31.0865417" id="Fill-14" fill="#F4F3ED"></path>
                    <path d="M95.9951176,33.5918125 C96.7585,33.5559375 97.4732647,33.6721042 98.1394118,33.9411667 C98.8047059,34.209375 99.4085882,34.6219375 99.9510588,35.178 C100.493529,35.7332083 100.949853,36.4062917 101.320029,37.1955417 C101.694471,37.9941875 101.922206,38.780875 102.003235,39.5530417 C102.084265,40.3260625 102.015176,41.0546667 101.795971,41.7397083 C101.577618,42.4238958 101.210853,43.0482917 100.695676,43.6146042 C100.1805,44.1800625 99.5143529,44.654125 98.6972353,45.0393542 C97.8801176,45.422875 97.0894412,45.6338542 96.3260588,45.6697292 C95.5626765,45.7056042 94.8479118,45.5894375 94.1826176,45.3212292 C93.5164706,45.0521667 92.9194118,44.6370417 92.3922941,44.0741458 C91.8634706,43.5121042 91.4122647,42.8304792 91.0378235,42.0318333 C90.6676471,41.2425833 90.4347941,40.4644375 90.3401176,39.69825 C90.2445882,38.9320625 90.306,38.206875 90.5252059,37.5226875 C90.7435588,36.8376458 91.1103235,36.21325 91.6255,35.6477917 C92.1406765,35.0814792 92.8068235,34.6074167 93.6239412,34.2221875 C94.4410588,33.8386667 95.2317353,33.6276875 95.9951176,33.5918125 L95.9951176,33.5918125 Z M99.9604412,42.3470208 C100.447471,41.8721042 100.795471,41.363875 101.006147,40.8240417 C101.216824,40.2842083 101.298706,39.729 101.2535,39.1567083 C101.208294,38.5844167 101.052206,38.0146875 100.786088,37.4466667 C100.524235,36.8880417 100.188176,36.4088542 99.7770588,36.00825 C99.3667941,35.6076458 98.8865882,35.3172292 98.3381471,35.1344375 C97.7888529,34.9525 97.1764412,34.896125 96.4992059,34.967875 C95.8228235,35.0387708 95.0858824,35.2625625 94.2883824,35.6383958 C93.4900294,36.0125208 92.8477647,36.43875 92.3607353,36.9145208 C91.8737059,37.3902917 91.5248529,37.8976667 91.3150294,38.4375 C91.1043529,38.9773333 91.0216176,39.5333958 91.0676765,40.1048333 C91.1128824,40.677125 91.2664118,41.2425833 91.5282647,41.8003542 C91.7943824,42.3692292 92.133,42.8526875 92.5441176,43.2532917 C92.9543824,43.6538958 93.4345882,43.9443125 93.9838824,44.1271042 C94.5323235,44.3098958 95.1455882,44.3654167 95.8219706,44.2936667 C96.4983529,44.2227708 97.2352941,43.9989792 98.0336471,43.624 C98.8311471,43.2490208 99.4734118,42.8236458 99.9604412,42.3470208 L99.9604412,42.3470208 Z" id="Fill-15" fill="#F4F3ED"></path>
                    <path d="M102.499647,47.0586042 C103.161529,46.9253542 103.835353,46.7852708 104.522824,46.6417708 C104.550971,46.9492708 104.580824,47.2516458 104.613235,47.5480417 C104.644794,47.8444375 104.685735,48.1451042 104.735206,48.4500417 C104.784676,48.7532708 104.846088,49.0505208 104.920294,49.3400833 C104.993647,49.6305 105.055912,49.9268958 105.104529,50.2318333 C105.176176,50.6734375 105.202618,51.0996667 105.183853,51.5122292 C105.164235,51.9247917 105.0815,52.2963542 104.9365,52.6269167 C104.7915,52.9583333 104.575706,53.2359375 104.289118,53.4605833 C104.002529,53.684375 103.622971,53.8347083 103.151294,53.9115833 C102.648059,53.9935833 102.197706,53.9517292 101.799382,53.7843125 C101.401059,53.6168958 101.057324,53.3905417 100.769029,53.1035417 C100.479882,52.8156875 100.240206,52.4970833 100.049147,52.1451667 C99.8572353,51.7941042 99.7156471,51.4695208 99.6243824,51.1722708 C99.4879118,51.3234583 99.2951471,51.531875 99.0486471,51.7992292 C98.8012941,52.0657292 98.5292059,52.3629792 98.2323824,52.6918333 C97.9355588,53.0198333 97.6250882,53.3615 97.3009706,53.7159792 C96.9768529,54.0704583 96.6663824,54.412125 96.3695588,54.740125 C96.0735882,55.0689792 95.8032059,55.3764792 95.5592647,55.6643333 C95.3153235,55.9513333 95.1319412,56.18025 95.0091176,56.3519375 C95.0048529,56.1905 94.9895,56.031625 94.9639118,55.8736042 C94.9383235,55.7172917 94.9127353,55.5592708 94.8871471,55.40125 C94.8632647,55.2543333 94.8385294,55.1022917 94.8129412,54.945125 C94.7873529,54.7871042 94.7523824,54.6367708 94.7071765,54.4932708 C94.9016471,54.3002292 95.1933529,54.00725 95.5822941,53.6151875 C95.9703824,53.2239792 96.3849118,52.792625 96.8250294,52.3219792 C97.2651471,51.8513333 97.7018529,51.3747083 98.1334412,50.8886875 C98.5658824,50.4035208 98.9283824,49.9653333 99.2200882,49.5732708 L99.1228529,48.9745 L97.9747941,49.1615625 C97.2822059,49.2734583 96.6032647,49.3973125 95.9362647,49.533125 C95.2692647,49.6689375 94.6142059,49.80475 93.9693824,49.9422708 C93.9514706,49.697125 93.9199118,49.4383125 93.8755588,49.1658333 C93.8312059,48.8925 93.7791765,48.6371042 93.7194706,48.3987917 C94.3736765,48.3253333 95.0389706,48.2458958 95.7145,48.1638958 C96.3891765,48.0801875 97.0732353,47.9828125 97.7649706,47.8700625 L100.469647,47.4301667 C101.161382,47.3174167 101.838618,47.1935625 102.499647,47.0586042 L102.499647,47.0586042 Z M99.7983824,49.3580208 C99.8154412,49.5322708 99.8410294,49.7253125 99.876,49.9345833 C99.9288824,50.260875 100.020147,50.5931458 100.150647,50.93225 C100.280294,51.2730625 100.461971,51.5745833 100.693118,51.8385208 C100.924265,52.1024583 101.21,52.3066042 101.550324,52.4509583 C101.8915,52.5944583 102.298353,52.6277708 102.769176,52.5508958 C103.178588,52.485125 103.504412,52.3535833 103.746647,52.1579792 C103.989735,51.962375 104.169706,51.7308958 104.287412,51.4643958 C104.405971,51.1961875 104.470794,50.916875 104.482735,50.6238958 C104.493824,50.3317708 104.478471,50.0481875 104.434118,49.7748542 C104.374412,49.4075625 104.317265,49.1051875 104.261824,48.8660208 C104.207235,48.6268542 104.155206,48.4244167 104.107441,48.2604167 C103.526588,48.3330208 102.952559,48.405625 102.382794,48.4765208 C101.813029,48.5474167 101.245824,48.6285625 100.679471,48.7208125 L99.7830294,48.866875 C99.7753529,49.0189167 99.7804706,49.1820625 99.7983824,49.3580208 L99.7983824,49.3580208 Z" id="Fill-16" fill="#F4F3ED"></path>
                    <path d="M104.841824,59.7361458 C104.856324,59.46025 104.869118,59.1706875 104.880206,58.8683125 C104.890441,58.5642292 104.896412,58.2618542 104.896412,57.9577708 C104.896412,57.6545417 104.893,57.3607083 104.887029,57.0779792 C104.880206,56.7961042 104.867412,56.5424167 104.847794,56.3177708 C105.035441,56.3809792 105.203471,56.4168542 105.351882,56.4236875 C105.468735,56.4305208 105.635059,56.4125833 105.85,56.3707292 C105.791147,57.0711458 105.736559,57.7544792 105.685382,58.4232917 C105.634206,59.09125 105.589853,59.7762917 105.552324,60.4775625 C105.515647,61.1779792 105.486647,61.863875 105.467882,62.5335417 C105.448265,63.2040625 105.430353,63.8899583 105.414147,64.5920833 C105.205176,64.5271667 105.036294,64.4921458 104.909206,64.4853125 C104.771029,64.477625 104.605559,64.4955625 104.411941,64.5382708 C104.455441,64.3170417 104.495529,64.0659167 104.531353,63.7866042 C104.567176,63.5055833 104.601294,63.2151667 104.633706,62.9127917 C104.665265,62.6104167 104.691706,62.3088958 104.713882,62.0056667 C104.735206,61.7041458 104.753118,61.4145833 104.767618,61.1386875 C103.676706,61.049 102.579824,60.9738333 101.476971,60.91575 L98.7407353,60.7705417 C98.0404706,60.7329583 97.3504412,60.7090417 96.6697941,60.6996458 C95.99,60.6911042 95.3195882,60.6842708 94.6611176,60.6817083 C94.6952353,60.4374167 94.7199706,60.1786042 94.7344706,59.9027083 C94.7489706,59.6259583 94.7523824,59.3654375 94.7438529,59.1194375 C95.3997647,59.1860625 96.0659118,59.2509792 96.7431471,59.3133333 C97.4203824,59.3765417 98.1095588,59.4260833 98.8098235,59.4645208 L101.546059,59.608875 C102.648912,59.6678125 103.7475,59.7105208 104.841824,59.7361458" id="Fill-17" fill="#F4F3ED"></path>
                    <path d="M102.746147,67.00425 C103.410588,67.1212708 104.089529,67.2374375 104.782118,67.3536042 C104.731794,67.4834375 104.685735,67.6098542 104.643088,67.732 C104.600441,67.8532917 104.566324,67.9762917 104.539882,68.101 C104.512588,68.2257083 104.493824,68.352125 104.481882,68.48025 C104.471647,68.608375 104.461412,68.7424792 104.452882,68.8817083 C103.774794,68.7031875 103.107794,68.5289375 102.454441,68.3615208 C101.801088,68.19325 101.131529,68.0352292 100.445765,67.8883125 L97.7666765,67.3100417 C97.0817647,67.1622708 96.4036765,67.029875 95.7341176,66.9137083 C95.0637059,66.7949792 94.4035294,66.6830833 93.7527353,66.5754583 C93.8252353,66.3414167 93.8909118,66.0877292 93.9489118,65.8178125 C94.0069118,65.5470417 94.0504118,65.2907917 94.0819706,65.0473542 C94.7182647,65.2164792 95.3665,65.3864583 96.0258235,65.5555833 C96.6842941,65.7247083 97.3564118,65.8835833 98.0421765,66.0305 L100.720412,66.6087708 C101.406176,66.7565417 102.080853,66.8880833 102.746147,67.00425" id="Fill-18" fill="#F4F3ED"></path>
                    <path d="M98.5897647,80.0687292 C99.3420588,80.3890417 99.8683235,80.5923333 100.166853,80.67775 C100.100324,80.7768333 100.038912,80.8707917 99.9817647,80.9621875 C99.9237647,81.0527292 99.8734412,81.1466875 99.8307941,81.2449167 C99.7753529,81.3713333 99.7352647,81.5276458 99.7113824,81.7147083 C99.383,81.5353333 98.9906471,81.3269167 98.5326176,81.0894583 C98.0737353,80.852 97.5790294,80.6042917 97.0485,80.3471875 C96.5179706,80.0892292 95.9720882,79.8252917 95.4125588,79.5536667 C94.8530294,79.28375 94.308,79.0249375 93.7774706,78.7797917 C93.1309412,78.4825417 92.5910294,78.1255 92.1602941,77.7078125 C91.7287059,77.290125 91.4097059,76.8263125 91.205,76.3180833 C90.9994412,75.809 90.9175588,75.2580625 90.9576471,74.6652708 C90.9985882,74.0733333 91.1640588,73.4455208 91.4557647,72.7843958 C92.0980294,71.3237708 92.8963824,70.4098125 93.8482647,70.0399583 C94.801,69.6701042 95.9917059,69.7999375 97.4195294,70.4311667 C97.8767059,70.6336042 98.2767353,70.8249375 98.6204706,71.0060208 C98.9650588,71.18625 99.3207353,71.3587917 99.6909118,71.5227917 C100.507176,71.8823958 101.234735,72.1924583 101.875294,72.4529792 C102.515853,72.7117917 103.059176,72.9278958 103.504412,73.1021458 C103.433618,73.210625 103.361118,73.3293542 103.286059,73.4600417 C103.211853,73.5890208 103.148735,73.712875 103.097559,73.8290417 C103.049794,73.9358125 103.011412,74.0442917 102.980706,74.1527708 C102.950853,74.26125 102.921853,74.3731458 102.893706,74.4884583 C102.688147,74.3757083 102.417765,74.2322083 102.081706,74.0605208 C101.744794,73.8879792 101.362676,73.6957917 100.933647,73.4839583 C100.504618,73.2704167 100.039765,73.0483333 99.5390882,72.8151458 C99.0375588,72.5819583 98.5155588,72.3453542 97.9713824,72.1044792 C97.6404412,71.9592708 97.2958529,71.8123542 96.9367647,71.6654375 C96.5776765,71.5185208 96.2177353,71.4006458 95.8569412,71.3109583 C95.4961471,71.2204167 95.1336471,71.1742917 94.7694412,71.170875 C94.4052353,71.1666042 94.0563824,71.2357917 93.7203235,71.3784375 C93.3851176,71.5202292 93.0703824,71.7474375 92.7761176,72.0592083 C92.4818529,72.3718333 92.2148824,72.7997708 91.9752059,73.3455833 C91.7389412,73.8794375 91.6178235,74.3646042 91.6127059,74.7976667 C91.6075882,75.2315833 91.6800882,75.6210833 91.8302059,75.9661667 C91.9794706,76.31125 92.191,76.6230208 92.4630882,76.900625 C92.7360294,77.177375 93.0388235,77.4250833 93.3731765,77.6420417 C93.7066765,77.8598542 94.0512647,78.0520417 94.4069412,78.2203125 C94.7617647,78.3894375 95.0901471,78.5397708 95.3912353,78.673875 C96.7712941,79.2828958 97.8374706,79.7475625 98.5897647,80.0687292" id="Fill-19" fill="#F4F3ED"></path>
                    <path d="M91.6664412,85.8155625 C90.1081176,85.4175208 88.4994706,85.0194792 86.8387941,84.624 C86.9181176,84.8375417 87.0298529,85.1458958 87.1748529,85.5490625 C87.319,85.9530833 87.4844706,86.4160417 87.6687059,86.9422083 C87.8537941,87.4666667 88.0559412,88.0329792 88.2751471,88.6385833 C88.4943529,89.2458958 88.7161176,89.8608958 88.9404412,90.4861458 C89.1630588,91.1105417 89.3814118,91.72725 89.5929412,92.332 C89.8044706,92.9393125 90.0032059,93.5047708 90.1882941,94.0309375 L90.0492647,94.1838333 C89.2133824,93.587625 88.4099118,93.0076458 87.6354412,92.44475 C86.8626765,91.8818542 86.0992941,91.3317708 85.3461471,90.7945 C84.593,90.2572292 83.8466765,89.7276458 83.1097353,89.2048958 C82.3719412,88.6812917 81.6332941,88.1713542 80.8929412,87.6750833 C80.9944412,87.5939375 81.0865588,87.5085208 81.1675882,87.4188333 C81.2503235,87.3282917 81.3330588,87.2334792 81.4183529,87.1395208 C81.5036471,87.0455625 81.5880882,86.9516042 81.6691176,86.8610625 C81.751,86.7705208 81.8277647,86.6705833 81.896,86.5621042 C83.0235882,87.42225 84.1196176,88.2550625 85.1832353,89.0579792 C86.2477059,89.8626042 87.3488529,90.6638125 88.4883824,91.4624583 L88.5097059,91.4385417 C88.0064706,89.9975625 87.5006765,88.57025 86.9923235,87.1583125 C86.4831176,85.7455208 85.9056765,84.3173542 85.26,82.8746667 L85.3563824,82.7678958 C86.7765294,83.1924167 88.2197059,83.5955833 89.6825,83.9799583 C91.1461471,84.3634792 92.6336765,84.7649375 94.1442353,85.1851875 L94.1655588,85.1612708 C93.7262941,84.6632917 93.2512059,84.1234583 92.7402941,83.5400625 C92.2285294,82.9558125 91.7193235,82.3852292 91.2135294,81.8283125 C90.7068824,81.2705417 90.2258235,80.7495 89.7677941,80.2643333 C89.3106176,79.7791667 88.9242353,79.3939375 88.6095,79.1103542 C88.7391471,78.9976042 88.8713529,78.8660625 89.0061176,78.7165833 C89.1417353,78.56625 89.2585882,78.4218958 89.3558235,78.2801042 C89.9025588,78.960875 90.4808529,79.6758125 91.0907059,80.4283333 C91.7014118,81.1791458 92.3189412,81.9308125 92.9441471,82.681625 C93.5685,83.4332917 94.1911471,84.1670208 94.8112353,84.885375 C95.4313235,85.6020208 96.0275294,86.2776667 96.6015588,86.9106042 L96.4207353,87.1121875 C94.8095294,86.6449583 93.2247647,86.21275 91.6664412,85.8155625" id="Fill-20" fill="#F4F3ED"></path>
                    <path d="M63.7385882,89.3620625 L63.7385882,97.9378958 L74.4822353,97.9378958 L74.4822353,108.5475 L63.7385882,108.5475 L63.7385882,121.550479 L50.8830588,121.550479 L50.8830588,108.5475 L40.1291765,108.5475 L40.1291765,97.9378958 L50.8830588,97.9378958 L50.8830588,89.3620625 C36.2355,86.3904167 25.2129412,73.4173333 25.2129412,57.8715 C25.2129412,40.1219167 39.5815882,25.732625 57.3057059,25.732625 C75.0298235,25.732625 89.3984706,40.1219167 89.3984706,57.8715 C89.3984706,73.4173333 78.3759118,86.3810208 63.7385882,89.3620625 L63.7385882,89.3620625 Z" id="Fill-21" fill="#A79C69"></path>
                    <path d="M63.7385882,97.9378958 L74.4822353,97.9378958 L74.4822353,108.5475 L63.7385882,108.5475 L63.7385882,121.550479 L50.8830588,121.550479 L50.8830588,108.5475 L40.1291765,108.5475 L40.1291765,97.9378958 L50.8830588,97.9378958 L50.8830588,89.3620625 C36.2355,86.3904167 25.2129412,73.4173333 25.2129412,57.8715 C25.2129412,40.1219167 39.5815882,25.732625 57.3057059,25.732625 C75.0298235,25.732625 89.3984706,40.1219167 89.3984706,57.8715 C89.3984706,73.4173333 78.3759118,86.3810208 63.7385882,89.3620625 L63.7385882,97.9378958 Z" id="Stroke-22" stroke="#EDE4D1" stroke-width="1.5"></path>
                    <path d="M57.3057059,28.8238542 C41.2448235,28.8238542 28.2204118,41.8669792 28.2204118,57.9611875 C28.2204118,74.046 41.2448235,87.0882708 57.3057059,87.0882708 C73.3768235,87.0882708 86.4012353,74.046 86.4012353,57.9611875 C86.4012353,41.8669792 73.3768235,28.8238542 57.3057059,28.8238542 L57.3057059,28.8238542 Z M57.3057059,77.1269792 C46.7309412,77.1269792 38.1674118,68.5511458 38.1674118,57.9611875 C38.1674118,47.3712292 46.7309412,38.786 57.3057059,38.786 C67.8804706,38.786 76.4533824,47.3712292 76.4533824,57.9611875 C76.4533824,68.5511458 67.8804706,77.1269792 57.3057059,77.1269792 L57.3057059,77.1269792 Z" id="Fill-23" fill="#BDA843"></path>
                    <path d="M76.4533824,57.9611875 C76.4533824,68.5511458 67.8804706,77.1269792 57.3057059,77.1269792 C46.7309412,77.1269792 38.1674118,68.5511458 38.1674118,57.9611875 C38.1674118,47.3712292 46.7309412,38.786 57.3057059,38.786 C67.8804706,38.786 76.4533824,47.3712292 76.4533824,57.9611875" id="Fill-24" fill="#FFFFFF"></path>
                    <path d="M57.3057059,37.6089583 C46.1432647,37.6089583 37.0918529,46.673375 37.0918529,57.8518542 C37.0918529,69.0294792 46.1432647,78.0938958 57.3057059,78.0938958 C68.4681471,78.0938958 77.5195588,69.0294792 77.5195588,57.8518542 C77.5195588,46.673375 68.4681471,37.6089583 57.3057059,37.6089583 L57.3057059,37.6089583 Z M57.3057059,77.1269792 C46.7309412,77.1269792 38.1674118,68.5511458 38.1674118,57.9611875 C38.1674118,47.3712292 46.7309412,38.786 57.3057059,38.786 C67.8804706,38.786 76.4533824,47.3712292 76.4533824,57.9611875 C76.4533824,68.5511458 67.8804706,77.1269792 57.3057059,77.1269792 L57.3057059,77.1269792 Z" id="Fill-25" fill="#FFFFFF"></path>
                    <path d="M41.0392647,42.101875 C40.5172647,42.3111458 39.5773235,42.2060833 39.2642941,42.8338958 C38.9512647,43.4608542 38.6382353,43.9836042 38.2202941,44.0886667 C37.8023529,44.192875 37.5942353,43.7743333 37.2803529,44.0886667 C36.9673235,44.4021458 35.9233235,44.9248958 35.9233235,44.9248958 L34.9833824,45.5518542 L34.3573235,45.5518542 L34.3573235,71.6919167 L72.8838235,71.0641042 C72.8838235,71.0641042 74.5547353,70.1236667 74.9718235,70.1236667 C75.3897647,70.1236667 77.9997647,69.705125 77.9997647,69.0781667 C77.9997647,68.4503542 80.6097647,66.9863125 81.0277059,66.7770417 C81.4456471,66.568625 83.5336471,65.8366042 82.3847353,65.2087917 C81.2366765,64.5818333 80.0877647,63.2228542 79.9837059,62.69925 C79.8796471,62.1765 79.1486765,60.1905625 78.6266765,59.7720208 C78.1046765,59.3534792 79.1486765,55.5900208 79.1486765,55.5900208 C79.1486765,55.5900208 77.8957059,53.7074375 77.5818235,53.3939583 C77.2687941,53.0804792 76.4337647,50.8844167 76.4337647,50.4667292 C76.4337647,50.0481875 75.8077059,49.3161667 75.3897647,48.6892083 C74.9718235,48.0613958 74.6587941,46.4931458 74.2408529,46.1796667 C73.8237647,45.8653333 73.3017647,45.8653333 72.8838235,45.9703958 C72.4658824,46.0746042 42.0832647,46.3889375 42.0832647,46.3889375 L42.7101765,40.9513125 C42.7101765,40.9513125 41.5612647,41.8926042 41.0392647,42.101875 Z" id="Fill-26" fill="#655A51"></path>
                    <path d="M42.7101765,40.9513125 C42.7101765,40.9513125 41.5612647,41.8926042 41.0392647,42.101875 C40.5172647,42.3111458 39.5773235,42.2060833 39.2642941,42.8338958 C38.9512647,43.4608542 38.6382353,43.9836042 38.2202941,44.0886667 C37.8023529,44.192875 37.5942353,43.7743333 37.2803529,44.0886667 C36.9673235,44.4021458 35.9233235,44.9248958 35.9233235,44.9248958 L34.9833824,45.5518542 L34.3573235,45.5518542 L34.3573235,71.6919167 L72.8838235,71.0641042 C72.8838235,71.0641042 74.5547353,70.1236667 74.9718235,70.1236667 C75.3897647,70.1236667 77.9997647,69.705125 77.9997647,69.0781667 C77.9997647,68.4503542 80.6097647,66.9863125 81.0277059,66.7770417 C81.4456471,66.568625 83.5336471,65.8366042 82.3847353,65.2087917 C81.2366765,64.5818333 80.0877647,63.2228542 79.9837059,62.69925 C79.8796471,62.1765 79.1486765,60.1905625 78.6266765,59.7720208 C78.1046765,59.3534792 79.1486765,55.5900208 79.1486765,55.5900208 C79.1486765,55.5900208 77.8957059,53.7074375 77.5818235,53.3939583 C77.2687941,53.0804792 76.4337647,50.8844167 76.4337647,50.4667292 C76.4337647,50.0481875 75.8077059,49.3161667 75.3897647,48.6892083 C74.9718235,48.0613958 74.6587941,46.4931458 74.2408529,46.1796667 C73.8237647,45.8653333 73.3017647,45.8653333 72.8838235,45.9703958 C72.4658824,46.0746042 42.0832647,46.3889375 42.0832647,46.3889375 L42.7101765,40.9513125 L42.7101765,40.9513125 Z" id="Stroke-27" stroke="#FFFFFF" stroke-width="1.3"></path>
                    <path d="M38.3371471,54.9639167 C38.8284412,54.8827708 39.4724118,54.811875 40.2920882,54.811875 C41.2985588,54.811875 42.0363529,55.0459167 42.5046176,55.4687292 C42.9259706,55.8437083 43.1946471,56.4185625 43.1946471,57.1215417 C43.1946471,57.8373333 42.9848235,58.399375 42.5865,58.809375 C42.0363529,59.3850833 41.1697647,59.6772083 40.1752353,59.6772083 C39.8698824,59.6772083 39.5892647,59.66525 39.3547059,59.6071667 L39.3547059,62.7727083 L38.3371471,62.7727083 L38.3371471,54.9639167 L38.3371471,54.9639167 Z M39.3547059,58.7743542 C39.5773235,58.8341458 39.8587941,58.8572083 40.1982647,58.8572083 C41.4273529,58.8572083 42.1770882,58.2464792 42.1770882,57.179625 C42.1770882,56.1247292 41.4273529,55.6207708 40.3151176,55.6207708 C39.8698824,55.6207708 39.5304118,55.6557917 39.3547059,55.7027708 L39.3547059,58.7743542 L39.3547059,58.7743542 Z" id="Fill-28" fill="#FFF6D6"></path>
                    <path d="M44.8544706,60.2870833 L44.0347941,62.7727083 L42.9814118,62.7727083 L45.6741471,54.8708125 L46.8921471,54.8708125 L49.5840294,62.7727083 L48.4956765,62.7727083 L47.6521176,60.2870833 L44.8544706,60.2870833 L44.8544706,60.2870833 Z M47.4533824,59.4901458 L46.6686765,57.2146458 C46.4938235,56.6995833 46.3761176,56.2297917 46.2592647,55.7736667 L46.2362353,55.7736667 C46.1193824,56.2297917 46.0016765,56.7226458 45.8379118,57.2035417 L45.0651471,59.4901458 L47.4533824,59.4901458 L47.4533824,59.4901458 Z" id="Fill-29" fill="#FFF6D6"></path>
                    <path d="M50.6101176,61.5298958 C51.0672941,61.822875 51.7232059,62.0458125 52.4251765,62.0458125 C53.4674706,62.0458125 54.0764706,61.494875 54.0764706,60.6970833 C54.0764706,59.9710417 53.6542647,59.537125 52.5889412,59.1382292 C51.301,58.6692917 50.5052059,57.989375 50.5052059,56.8875 C50.5052059,55.6557917 51.5236176,54.7418333 53.0572059,54.7418333 C53.8538529,54.7418333 54.4509118,54.9288958 54.7903824,55.1279167 L54.5097647,55.9607292 C54.2632647,55.8086875 53.737,55.58575 53.0222353,55.58575 C51.9449706,55.58575 51.5355588,56.2297917 51.5355588,56.769625 C51.5355588,57.5084792 52.0157647,57.8723542 53.1041176,58.2934583 C54.4389706,58.809375 55.1059706,59.455125 55.1059706,60.6150833 C55.1059706,61.8356875 54.2163529,62.9008333 52.3552353,62.9008333 C51.5944118,62.9008333 50.7627941,62.6667917 50.3414412,62.3857708 L50.6101176,61.5298958" id="Fill-30" fill="#FFF6D6"></path>
                    <path d="M56.3785588,61.5298958 C56.8357353,61.822875 57.4916471,62.0458125 58.1936176,62.0458125 C59.2359118,62.0458125 59.8449118,61.494875 59.8449118,60.6970833 C59.8449118,59.9710417 59.4227059,59.537125 58.3573824,59.1382292 C57.0694412,58.6692917 56.2736471,57.989375 56.2736471,56.8875 C56.2736471,55.6557917 57.2920588,54.7418333 58.8256471,54.7418333 C59.6222941,54.7418333 60.2193529,54.9288958 60.5588235,55.1279167 L60.2782059,55.9607292 C60.0317059,55.8086875 59.5054412,55.58575 58.7906765,55.58575 C57.7142647,55.58575 57.304,56.2297917 57.304,56.769625 C57.304,57.5084792 57.7842059,57.8723542 58.8725588,58.2934583 C60.2074118,58.809375 60.8744118,59.455125 60.8744118,60.6150833 C60.8744118,61.8356875 59.9847941,62.9008333 58.1236765,62.9008333 C57.3628529,62.9008333 56.5312353,62.6667917 56.1098824,62.3857708 L56.3785588,61.5298958" id="Fill-31" fill="#FFF6D6"></path>
                    <path d="M63.2950588,54.8708125 L63.2950588,58.1764375 L67.1119706,58.1764375 L67.1119706,54.8708125 L68.1414706,54.8708125 L68.1414706,62.7727083 L67.1119706,62.7727083 L67.1119706,59.0681875 L63.2950588,59.0681875 L63.2950588,62.7727083 L62.2647059,62.7727083 L62.2647059,54.8708125 L63.2950588,54.8708125" id="Fill-32" fill="#FFF6D6"></path>
                    <path d="M73.979,59.0681875 L70.9237647,59.0681875 L70.9237647,61.9159792 L74.3423529,61.9159792 L74.3423529,62.7727083 L69.8934118,62.7727083 L69.8934118,54.8708125 L74.1666471,54.8708125 L74.1666471,55.7258333 L70.9237647,55.7258333 L70.9237647,58.2234167 L73.979,58.2234167 L73.979,59.0681875" id="Fill-33" fill="#FFF6D6"></path>
                </g>
            </g>
        </g>
    </g>
</svg>